<svg width="316" height="584" viewBox="0 0 316 584" fill="none" xmlns="http://www.w3.org/2000/svg">
<mask id="path-1-outside-1_240_519" maskUnits="userSpaceOnUse" x="0" y="0" width="316" height="584" fill="black">
<rect fill="white" width="316" height="584"/>
<path fill-rule="evenodd" clip-rule="evenodd" d="M213.326 297.467C268.787 275.447 308 221.303 308 158C308 75.1573 240.843 8 158 8C75.1573 8 8 75.1573 8 158C8 221.303 47.2133 275.447 102.674 297.467L158 582L213.326 297.467ZM214 156C214 188.033 188.033 214 156 214C123.967 214 98 188.033 98 156C98 123.967 123.967 98 156 98C188.033 98 214 123.967 214 156Z"/>
</mask>
<path fill-rule="evenodd" clip-rule="evenodd" d="M213.326 297.467C268.787 275.447 308 221.303 308 158C308 75.1573 240.843 8 158 8C75.1573 8 8 75.1573 8 158C8 221.303 47.2133 275.447 102.674 297.467L158 582L213.326 297.467ZM214 156C214 188.033 188.033 214 156 214C123.967 214 98 188.033 98 156C98 123.967 123.967 98 156 98C188.033 98 214 123.967 214 156Z" fill="#F25019"/>
<path d="M213.326 297.467L210.374 290.032L206.308 291.646L205.473 295.94L213.326 297.467ZM102.674 297.467L110.527 295.94L109.692 291.646L105.626 290.032L102.674 297.467ZM158 582L150.147 583.527H165.853L158 582ZM216.278 304.902C274.683 281.714 316 224.692 316 158H300C300 217.914 262.891 269.181 210.374 290.032L216.278 304.902ZM316 158C316 70.739 245.261 0 158 0V16C236.424 16 300 79.5756 300 158H316ZM158 0C70.739 0 0 70.739 0 158H16C16 79.5756 79.5756 16 158 16V0ZM0 158C0 224.692 41.3175 281.714 99.722 304.902L105.626 290.032C53.1091 269.181 16 217.914 16 158H0ZM165.853 580.473L110.527 295.94L94.8212 298.994L150.147 583.527L165.853 580.473ZM205.473 295.94L150.147 580.473L165.853 583.527L221.179 298.994L205.473 295.94ZM156 222C192.451 222 222 192.451 222 156H206C206 183.614 183.614 206 156 206V222ZM90 156C90 192.451 119.549 222 156 222V206C128.386 206 106 183.614 106 156H90ZM156 90C119.549 90 90 119.549 90 156H106C106 128.386 128.386 106 156 106V90ZM222 156C222 119.549 192.451 90 156 90V106C183.614 106 206 128.386 206 156H222Z" fill="black" mask="url(#path-1-outside-1_240_519)"/>
</svg>
