<svg width="317" height="561" viewBox="0 0 317 561" fill="none" xmlns="http://www.w3.org/2000/svg">
<mask id="path-1-outside-1_240_520" maskUnits="userSpaceOnUse" x="-135.315" y="-44.2483" width="496.683" height="656.859" fill="black">
<rect fill="white" x="-135.315" y="-44.2483" width="496.683" height="656.859"/>
<path fill-rule="evenodd" clip-rule="evenodd" d="M163.146 308.241C222.793 306.518 278.16 269.051 299.811 209.565C328.145 131.719 288.007 45.6423 210.16 17.3084C132.313 -11.0255 46.2369 29.1126 17.903 106.959C-3.74786 166.445 14.5821 230.735 59.1671 270.396L13.8404 556.692L163.146 308.241ZM212.164 175.536C201.208 205.637 167.925 221.157 137.824 210.201C107.724 199.245 92.2036 165.962 103.159 135.862C114.115 105.761 147.398 90.2409 177.499 101.197C207.599 112.152 223.12 145.435 212.164 175.536Z"/>
</mask>
<path fill-rule="evenodd" clip-rule="evenodd" d="M163.146 308.241C222.793 306.518 278.16 269.051 299.811 209.565C328.145 131.719 288.007 45.6423 210.16 17.3084C132.313 -11.0255 46.2369 29.1126 17.903 106.959C-3.74786 166.445 14.5821 230.735 59.1671 270.396L13.8404 556.692L163.146 308.241ZM212.164 175.536C201.208 205.637 167.925 221.157 137.824 210.201C107.724 199.245 92.2036 165.962 103.159 135.862C114.115 105.761 147.398 90.2409 177.499 101.197C207.599 112.152 223.12 145.435 212.164 175.536Z" fill="#F25019"/>
<path d="M163.146 308.241L162.915 300.244L158.542 300.371L156.289 304.12L163.146 308.241ZM59.1671 270.396L67.0687 271.647L67.7527 267.326L64.4842 264.419L59.1671 270.396ZM13.8404 556.692L5.9388 555.441L20.6975 560.813L13.8404 556.692ZM163.377 316.238C226.19 314.423 284.518 274.971 307.328 212.301L292.293 206.829C271.801 263.13 219.396 298.613 162.915 300.244L163.377 316.238ZM307.328 212.301C337.173 130.303 294.895 39.6359 212.896 9.79085L207.424 24.8259C281.119 51.6487 319.116 133.134 292.293 206.829L307.328 212.301ZM212.896 9.79085C130.898 -20.0542 40.2305 22.2246 10.3855 104.223L25.4206 109.695C52.2433 36.0006 133.729 -1.9968 207.424 24.8259L212.896 9.79085ZM10.3855 104.223C-12.4244 166.893 6.89856 234.608 53.85 276.373L64.4842 264.419C22.2657 226.863 4.92871 165.996 25.4206 109.695L10.3855 104.223ZM21.742 557.943L67.0687 271.647L51.2655 269.145L5.9388 555.441L21.742 557.943ZM156.289 304.12L6.9833 552.571L20.6975 560.813L170.003 312.362L156.289 304.12ZM135.088 217.719C169.341 230.185 207.214 212.525 219.681 178.272L204.646 172.8C195.202 198.749 166.509 212.128 140.561 202.683L135.088 217.719ZM95.6419 133.126C83.175 167.378 100.836 205.252 135.088 217.719L140.561 202.683C114.612 193.239 101.232 164.547 110.677 138.598L95.6419 133.126ZM180.235 93.6791C145.982 81.2122 108.109 98.873 95.6419 133.126L110.677 138.598C120.122 112.649 148.814 99.2696 174.763 108.714L180.235 93.6791ZM219.681 178.272C232.148 144.02 214.487 106.146 180.235 93.6791L174.763 108.714C200.711 118.159 214.091 146.851 204.646 172.8L219.681 178.272Z" fill="black" mask="url(#path-1-outside-1_240_520)"/>
</svg>
